<svg width="105" height="319" fill="none" xmlns="http://www.w3.org/2000/svg"><path fill-rule="evenodd" clip-rule="evenodd" d="M20.21 51.38C31.88 32.332 43.898 12.765 46.916 7.9 51.635.29 52.54-.76 53.386.396c.542.739 12.61 20.3 26.819 43.467 22.598 36.849 25.681 42.27 24.613 43.274-.671.631-4.696 2.558-8.945 4.281-23.463 9.515-48.687 11.153-72.95 4.737C15.786 94.269 1.929 88.776.2 87.15c-1.05-.989 1.559-5.652 20.011-35.77ZM9 85.5c-6.295 1.5 0-3 0-3s2.884-1.5 6.232 0c.706.316 1.273.632 1.816.934C19.079 84.566 20.758 85.5 28 85.5c1.003 0 1.88-.003 2.653-.005 3.745-.012 5.04-.016 6.234.331.631.184 1.234.465 2.155.895.27.126.565.264.896.416 1.007.462 1.744.87 2.355 1.21 1.85 1.026 2.534 1.405 6.043.653 1.526-.327 2.339-.732 3.074-1.099 1.513-.753 2.699-1.345 9.09-.764h.009c5.107.465 6.308.574 7.497.498.358-.023.715.06 1.177.168.855.2 2.07.484 4.317.334 2.129-.142 3.29-.042 4.063.024 1.245.107 1.476.127 3.11-1.095.436-.326 1.363-.685 2.39-1.084 1.145-.444 2.414-.936 3.257-1.482 4.506-2.917 5.195-2.91 7.37-2.885.808.01 1.82.02 3.31-.115 5.5-.5 0 3 0 3s-5.917-1-12 4c-4.874 4.006-11.247 3.466-15.645 3.093-1.09-.093-2.06-.175-2.855-.175-1.315 0-2.306-.207-3.31-.418-2.05-.429-4.156-.87-9.19.418a167.12 167.12 0 0 0-2.853.761c-4.685 1.282-5.261 1.44-11.209-.761-1.213-.449-2.229-.845-3.122-1.193C32.573 88.57 31.11 88 24.5 88c-3.765 0-6.025-.886-8.019-1.668-2.242-.879-4.148-1.626-7.48-.832Zm27.816-30C32.43 55.422 27.86 60.615 28 65c.137 4.248 4.638 9.075 8.887 9 4.173-.074 8.478-4.829 8.613-9 .14-4.31-4.372-9.424-8.684-9.5ZM69.183 40c-.334-4.023-3.078-7.103-7.113-7-4.328.11-6.893 4.692-6.471 9 .373 3.81 2.65 5.984 6.47 6.234 4.43.29 7.48-3.81 7.114-8.234Zm-23.7 71.478c-10.736 2.085-19.195 9.216-21.348 17.995-.613 2.504-1.737 4.052-4.477 6.171-3.345 2.588-3.658 3.142-3.658 6.479 0 3.328.317 3.894 3.605 6.437 1.982 1.533 3.604 3.027 3.604 3.321 0 .293-1.622 1.787-3.604 3.321-3.27 2.528-3.605 3.121-3.605 6.365 0 3.067.419 3.931 2.943 6.061 3.295 2.781 7.66 3.839 12.078 2.929 2.344-.484 3.457-.274 6.206 1.17 4.769 2.503 9.75 3.353 17.604 3.004 5.404-.239 7.767-.718 11.264-2.277 3.64-1.624 5.34-1.946 9.598-1.821 5.9.174 9.489-1.084 11.825-4.143 3.06-4.007 1.156-10.598-3.635-12.582-2.688-1.112-2.688-2.942 0-4.055 3.148-1.303 5.109-4.41 5.109-8.094 0-2.883-.426-3.614-3.476-5.973-2.711-2.097-3.702-3.56-4.504-6.651-1.858-7.154-8.446-13.499-17.086-16.455-4.695-1.607-13.43-2.175-18.443-1.202ZM34.5 174.5c0 1.5 1 3 1 3s14.786 32.984 16.27 33.425c.723.214 1.85-.045 2.503-.576 1.86-1.515 15.227-33.849 15.227-34.071 0-.278.789-1.399-.5-1.778-1.93-.567-3.079.625-8 2.498-5.42 2.063-9 1.502-9 1.502s-2.315.566-7.5-1.502c-6.245-2.492-9-3.498-10-2.498Zm10.903 104.735-28.028 28.078 2.45 2.252c9.435 8.674 24.787 11.765 37.746 7.601 7.57-2.433 14.53-7.31 19.275-13.506 2.641-3.45 5.892-9.936 7.018-14.006 1.12-4.044 1.36-13.574.456-18.073-1.342-6.686-4.69-13.409-9.239-18.557l-1.65-1.867-28.028 28.078Zm14.483-20.47 28.029-28.078-2.45-2.252c-9.436-8.674-24.787-11.765-37.746-7.601-7.57 2.433-14.53 7.31-19.275 13.506-2.642 3.45-5.892 9.936-7.018 14.006-1.12 4.044-1.36 13.574-.457 18.073 1.343 6.686 4.69 13.409 9.24 18.557l1.649 1.867 28.028-28.078Z" fill="#D9D9D9"/></svg>